<svg height="18" viewBox="0 0 24 24" width="18" xmlns="http://www.w3.org/2000/svg"><path d="M11.83 1.73c-3.4.06-5.6 1.59-5.6 1.59-.28.18-.35.59-.16.87.2.31.59.36.89.15 0 0 4.31-3.19 10.5.04.29.17.68.07.85-.23.19-.3.06-.68-.28-.87-1.67-.88-3.25-1.32-4.67-1.48-.53-.06-1.04-.08-1.53-.07m.39 2.61c-5.96-.08-8.81 4.71-8.81 4.71-.19.29-.11.67.17.86.29.19.68.09.92-.23 0 0 2.42-4.18 7.7-4.09 5.3.07 7.62 4.06 7.62 4.06.18.29.56.39.86.22.32-.18.39-.56.22-.87 0 0-2.75-4.58-8.68-4.66m-.72 2.48c-1.68.12-3.29.73-4.5 1.74C4.62 10.53 3.1 14.14 4.77 19c.11.33.47.5.8.39.32-.11.5-.47.38-.79-1.54-4.47-.17-7.4 1.85-9.1 1.97-1.61 5.45-2 8.04-.4 1.27.8 2.26 2.18 2.76 3.54.51 1.36.48 2.68.07 3.3-.42.65-1.27.89-2.02.7-.75-.19-1.36-.73-1.39-1.87-.03-1.71-1.37-2.77-2.76-2.93-1.34-.16-2.89.56-3.29 2.16-.76 2.92 1.15 7.07 5.57 8.45.33.1.68-.08.79-.41.1-.33-.07-.69-.42-.79-3.83-1.19-5.28-4.82-4.73-6.96.24-.96 1.08-1.29 1.96-1.21.87.1 1.62.62 1.62 1.71.05 1.64 1.12 2.75 2.34 3.06 1.22.31 2.63-.08 3.38-1.23.78-1.17.65-2.82.06-4.41-.6-1.6-1.71-3.18-3.28-4.17a8.34 8.34 0 0 0-5-1.22m.36 2.43v.01c-1.78.06-3.56.98-4.58 2.92-1.32 2.49-.72 5.03.16 6.86.89 1.84 2.1 3.06 2.1 3.06.24.25.63.25.88.01s.25-.61.01-.88c0 0-1.07-1.1-1.86-2.73s-1.27-3.69-.19-5.73c1.12-2.1 3.12-2.61 4.88-2.1 1.78.52 3.27 2.07 3.24 4.36-.04.35.21.65.56.67.34.03.64-.23.67-.64.06-2.86-1.86-4.93-4.12-5.59a5.76 5.76 0 0 0-1.75-.22m.22 5c-.35.01-.62.3-.61.64 0 0 .03 1.48.84 2.91.84 1.43 2.62 2.79 5.72 2.5.34-.02.61-.3.59-.66-.02-.35-.32-.61-.71-.58-2.72.25-3.87-.78-4.52-1.89-.65-1.1-.67-2.29-.67-2.29a.63.63 0 0 0-.64-.63z"/></svg>