<svg xmlns="http://www.w3.org/2000/svg" width="24" height="24"><path d="M12.354.006c-.566.048-.99.125-1.39.254-.242.08-.774.282-.968.366-.156.07-.837.444-1.267.696-.76.44-1.15.86-1.33 1.428-.04.11-.05.138-.09.156a1.4 1.4 0 0 0-.47.414c-.18.258-.3.657-.34 1.082l-.03.258-.01.077-.18.156A9.23 9.23 0 0 0 4.92 6.45a9.017 9.017 0 0 0-1.514 3.86c-.068.49-.083.72-.083 1.283s.016.793.084 1.285c.123.888.41 1.82.81 2.652a8.96 8.96 0 0 0 1.937 2.624l.22.204.02.282c.01.153.025.467.03.694.02.524.04.614.17.726.075.063.194.122.44.215.1.037.413.182.698.32.726.352.96.446 1.32.533.253.062.31.068.64.08l.315.008.1.353c.186.63.34 1.14.427 1.4.106.32.246.7.27.72.02.02.243.09.477.14.84.19 2.15.21 3.4.06.43-.05.72-.21.82-.45.03-.06.03-.08.02-.17a3.472 3.472 0 0 1-.03-.29l-.01-.19.14-.03c.44-.09.66-.2.75-.4a.498.498 0 0 0 .05-.24c.01-.19 0-.315-.1-.735-.13-.554-.15-.764-.12-.963l.02-.11.09-.03c.21-.067.29-.17.29-.33v-.07l.1-.045c.228-.1.47-.146.838-.16l.26-.006.043.077c.02.04.068.1.1.14.056.06.058.06.21.09.47.08.957.08 1.327.005.29-.06.382-.108.53-.266.27-.296.46-.86.46-1.388 0-.23-.017-.31-.11-.64-.13-.46-.3-.926-.43-1.175a.948.948 0 0 0-.34-.367.284.284 0 0 1-.09-.065 12.007 12.007 0 0 0 .54-1.12 9.12 9.12 0 0 0 .63-2.74 12.95 12.95 0 0 0 0-1.31 9.108 9.108 0 0 0-.63-2.73 12.21 12.21 0 0 0-.57-1.16 9.108 9.108 0 0 0-1.3-1.704l-.23-.24-.03-.296c-.09-1.046-.33-1.896-.7-2.46-.27-.41-.823-1.01-1.32-1.417-.597-.487-1.31-.76-2.32-.89A13.97 13.97 0 0 0 12.37 0h-.008zm1.133.565a5.99 5.99 0 0 1 1.657.53c.36.18.542.31.836.62.206.22.732.87.762.95.01.03.004.03-.06.02-.275-.03-.41-.02-.568.05-.194.09-.303.24-.312.44-.002.04 0 .07.007.08 0 .01.03-.01.06-.03.12-.08.21-.1.4-.1a.75.75 0 0 1 .32.05c.2.07.36.168.51.327.29.286.39.63.44 1.54.03.436.04 1.315.02 1.59-.09 1.21-.41 2.337-.91 3.19-.11.19-.5.77-.59.888-.13.158-.29.3-.47.42-.54.356-1.11.587-1.65.67a3.374 3.374 0 0 1-.82 0 3.405 3.405 0 0 1-.79-.28c-.72-.352-1.208-.82-1.986-1.912l-.096-.136.01.076c.044.34.24.68.636 1.137.46.52.795.826 1.085.99a.75.75 0 0 1 .12.076c.02.02.01.02-.054.01a4.292 4.292 0 0 0-.265-.012c-.304-.016-.506.048-.607.188l-.046.066-.16-.01c-.874-.05-1.4-.21-1.72-.524-.344-.346-.836-1.487-.944-2.19-.04-.23-.03-.255.142-.44.19-.205.22-.28.18-.41-.02-.047-.02-.05-.088-.04-.09.013-.136.04-.297.16a.933.933 0 0 1-.18.12.82.82 0 0 1-.53-.02c-.402-.164-.77-.693-.876-1.27a1.84 1.84 0 0 1 0-.585 1.14 1.14 0 0 1 .51-.7c.18-.1.43-.15.64-.13.34.05.53.274.67.81l.05.19h.16c.27 0 .49-.076.57-.19.03-.037.03-.04.005-.21a6.377 6.377 0 0 0-.095-.42C9 5.453 9 5.35 9.2 4.4c.09-.44.115-.62.12-.85a1.624 1.624 0 0 0-.085-.565.665.665 0 0 1-.04-.15c0-.05.1-.23.226-.41a5.1 5.1 0 0 1 .75-.75 9.5 9.5 0 0 1 .89-.59c.79-.45 1.06-.53 1.8-.52.31.002.42.01.62.04l.002-.01zm-3.003.42c.08.07.02.18-.122.22a.4.4 0 0 0-.16.11 2.917 2.917 0 0 1-.24.2c-.234.18-.313.27-.49.56-.192.32-.284.44-.372.5-.09.06-.17.07-.34.05-.18-.02-.275 0-.598.1-.283.09-.388.11-.388.08a.65.65 0 0 1 .075-.14c.29-.48.83-.94 1.55-1.3a5.4 5.4 0 0 1 .7-.3c.25-.083.31-.09.37-.05zM8.948 2.97c.058.155.08.275.085.52.007.286-.006.448-.08.92-.08.53-.088.6-.088.87 0 .283.012.354.098.65.068.23.088.408.06.482-.023.052-.07.083-.153.097l-.055.01-.01-.11a1 1 0 0 0-.382-.69 1.14 1.14 0 0 0-.73-.26c-.193 0-.33.03-.517.12a.462.462 0 0 1-.13.05c-.02-.02-.04-.43-.042-.76 0-.31.004-.41.027-.53.08-.4.21-.63.5-.87a2.297 2.297 0 0 1 1.03-.5 1.7 1.7 0 0 1 .31-.05c.08 0 .08 0 .1.04zM6.54 5.428c.015.012.024.05.025.1 0 .04.006.08.014.08a.2.2 0 0 1 .01.07c0 .04-.01.075-.02.075s-.01.016-.01.033c0 .02-.01.05-.02.06-.02.013-.03.03-.03.04s-.01.017-.02.017-.02.01-.02.02c0 .015-.01.026-.02.03-.01.007-.03.02-.03.03 0 .014-.01.03-.02.036-.02.01-.13.32-.13.37 0 .01 0 .02-.01.02s-.01.02-.01.05c0 .02-.01.13-.024.23-.048.44.073 1.04.3 1.5.26.52.705.89 1.204.99l.09.02.004.06c.02.32.153.71.34 1 .19.29.242.46.2.6-.03.1-.117.16-.53.39-.88.5-1.496.87-1.787 1.08-.08.06-.27.17-.414.24-.383.2-.5.32-.53.54-.016.15.06.46.23.92l.187.52c.05.14.156.41.23.61.21.528.26.706.36 1.18.067.31.18 1.08.18 1.196 0 .09-.425-.374-.783-.85a8.402 8.402 0 0 1-1.54-3.44c-.06-.32-.11-.645-.1-.69.005-.02 0-.034-.008-.034-.01 0-.02-.02-.01-.074 0-.05 0-.08-.01-.08s-.017-.03-.01-.098c.01-.07.01-.096 0-.096s-.015-.04-.008-.14c.003-.1.002-.146-.01-.146s-.015-.1-.015-.323 0-.32.012-.32.015-.043.01-.144c-.01-.1-.01-.14 0-.14s.02-.03.01-.1c-.005-.06 0-.09.01-.09s.014-.03.01-.08c-.01-.05-.004-.08.004-.08.01 0 .015-.023.01-.064-.005-.04 0-.07.004-.07s.01-.023.005-.052c0-.026 0-.05.01-.05s.01-.024.01-.053c-.006-.03 0-.05.004-.05s.01-.02.006-.044c0-.03 0-.05.01-.05s.014-.04.015-.084c.006-.05.01-.09.02-.09.01-.004.014-.02.01-.04 0-.02 0-.04.01-.04s.02-.02.02-.06c0-.034.005-.07.014-.07.01-.004.014-.015.01-.025-.022-.058.256-1.03.296-1.047.008-.003.014-.02.014-.036 0-.04.063-.21.078-.21.01 0 .015-.014.015-.035s.008-.04.017-.04.02-.018.02-.038.01-.04.02-.04.02-.015.02-.034a.1.1 0 0 1 .028-.06c.017-.014.027-.03.027-.04 0-.034.04-.12.05-.12.01 0 .013-.013.013-.023 0-.03.08-.19.095-.206a.368.368 0 0 0 .05-.09c.09-.208.112-.25.13-.26.01-.003.02-.02.02-.04 0-.014.01-.04.03-.053.013-.016.03-.04.03-.053A.09.09 0 0 1 5 7.297a.152.152 0 0 0 .04-.067c0-.024.013-.04.02-.04.01 0 .017-.013.017-.024 0-.01.003-.02.01-.02.01 0 .02-.02.023-.04s.02-.037.02-.037.02-.018.02-.028c0-.013.01-.022.017-.022s.02-.01.02-.03c.01-.02.02-.04.027-.04.01 0 .01-.01.01-.02s.01-.02.02-.02.01-.01.01-.02.007-.02.015-.02c.01 0 .013-.01.013-.02 0-.013.003-.023.01-.023.01 0 .016-.01.016-.023 0-.01.01-.02.02-.03.014-.01.025-.02.025-.03s.005-.02.013-.02c.01 0 .02-.01.02-.02s.01-.022.02-.03a.038.038 0 0 0 .02-.03c0-.01.01-.02.016-.02s.012-.01.012-.02c0-.014.01-.026.02-.03.01-.007.02-.02.02-.03 0-.01.01-.025.02-.03.01-.006.023-.02.023-.03 0-.01.01-.024.022-.03.01-.003.02-.018.02-.03s.012-.03.03-.038c.014-.01.03-.03.03-.038 0-.01.01-.03.03-.04.014-.01.03-.023.03-.034s.01-.03.03-.04c.014-.01.03-.028.03-.04s.02-.035.042-.053c.027-.02.046-.04.046-.053 0-.01.02-.036.05-.06.03-.02.05-.05.05-.06s.04-.05.09-.095a.51.51 0 0 0 .09-.1c0-.02.29-.316.31-.316.01 0 .02-.018.028-.03.006-.04.03-.04.063-.01l-.006.002zm11.602.643c1.116 1.31 1.786 2.87 1.983 4.63.032.3.045 1.16.022 1.5a8.498 8.498 0 0 1-1.175 3.77l-.04.06-.145.02c-.375.05-.918.23-1.402.48-.146.08-.165.08-.165.05 0-.01.05-.16.11-.32.23-.63.456-1.31.702-2.11l.27-.87c.164-.52.2-.67.19-.87-.01-.29-.1-.39-1.12-1.27-.285-.24-.51-.47-.55-.55-.06-.11-.005-.28.203-.63a3.29 3.29 0 0 0 .342-.75c.225-.676.387-1.416.472-2.16a11.6 11.6 0 0 0 .06-.91c0-.16.01-.24.03-.24.01-.003.1.09.19.203zm-1.592 5.01l.472.45c.21.21.46.44.548.51.24.19.36.31.414.42.047.1.047.1.04.27-.012.17-.064.44-.184.94-.154.64-.405 1.38-.775 2.31-.242.61-.296.69-.482.74-.153.04-.186.05-.59.06-.37.02-.494.03-.607.09-.07.04-.09.04-.09.01s.106-.21.676-1.14c.444-.73.77-1.27.83-1.39.023-.04.02-.046-.005-.09a1.71 1.71 0 0 0-.123-.15c-.1-.11-.146-.185-.146-.23a1.5 1.5 0 0 1 .05-.18c.212-.624.105-1.64-.21-1.99-.068-.077-.19-.15-.244-.15-.04 0-.153-.08-.153-.11 0-.014.07-.075.16-.144a2.4 2.4 0 0 0 .22-.19.35.35 0 0 1 .09-.077.4.4 0 0 1 .12.074v-.01zm-7.82.46c.038.04.16.17.265.29.107.12.233.27.28.32.152.18.498.39 1.263.76l.473.24.02.13c.05.31.33 1.26.43 1.48.15.31.32.4.58.3a.922.922 0 0 1 .12-.04c.05 0-.01.15-.14.32-.17.23-.2.37-.12.497.05.064.18.16.37.25.46.24 1.01.5 1.28.61a2.5 2.5 0 0 1 .32.15c0 .018-.07.025-.24.03-1.26.055-2 .11-3.18.25-.33.04-.53.06-.54.05-.03-.02-.07-.14-.09-.275a11.02 11.02 0 0 1 .02-1.29c.02-.21.03-.44.03-.51 0-.38-.18-.373-.25.006-.02.14-.02.25.03.75.04.34.04.75.02.91a3.1 3.1 0 0 1-.04.2c-.03.093-.034.1-.07.1-.063 0-.16-.05-.32-.16-.195-.14-.27-.176-.286-.15-.037.058 0 .15.095.266.096.11.11.205.043.28-.034.04-.063.05-.185.08-.197.04-.28.1-.28.21 0 .03 0 .035.093.035.05 0 .22-.01.38-.02.29-.02.43-.01.578.03l.054.017.014.12c.03.39.155 1.41.28 2.297l.087.655c0 .04-.38 0-.69-.065-.505-.106-.92-.274-1.765-.72a42.41 42.41 0 0 0-.61-.32l-.12-.06v-.14c0-.31-.06-1.144-.12-1.702-.17-1.57-.526-3.003-1.02-4.13a2.725 2.725 0 0 1-.1-.255c0-.02.14-.13.31-.26.99-.746 1.663-1.166 2.38-1.49.126-.055.25-.1.277-.1.037 0 .064.013.117.06zm7.358.47c.153.08.26.43.308 1 .024.31-.02.61-.105.73l-.02.04-.24-.01c-.4-.03-.9-.1-1.14-.17l-.06-.02v-.48c0-.02.11-.07.16-.08.06-.01.23-.03.28-.027.03 0 .04-.004.04-.01 0-.016-.16-.063-.24-.07a1.157 1.157 0 0 1-.08-.014.376.376 0 0 0-.09.01c-.09.02-.11.003-.13-.084a1.408 1.408 0 0 0-.043-.13c-.026-.05-.027-.06-.01-.07a.08.08 0 0 1 .033-.016 4.7 4.7 0 0 0 .274-.18c.44-.29.63-.39.77-.413.03-.01.05-.01.056-.02.01-.015.23.008.27.027h-.01zm-1.136 0c0 .01-.014.03-.03.04a4.71 4.71 0 0 0-.303.24l-.28.22h-.09c-.33.01-.57-.03-.76-.12-.15-.07-.3-.17-.3-.2s.06-.04.11-.02c.07.03.25.06.35.06.14 0 .38-.032.673-.102.245-.06.51-.11.566-.114.013 0 .025.01.025.02zm-4.95.08c.108.04.3.07.613.09.426.04.417.04.417.09a.944.944 0 0 1-.03.16 5.48 5.48 0 0 0-.04.19c-.01.08-.013.08-.05.08a2.55 2.55 0 0 1-.504-.13c-.406-.15-.65-.34-.615-.48.02-.06.036-.07.09-.04.026.02.08.04.118.06zm1.837.05c.01.01.03.02.03.01.02-.02.61.18.81.27.31.15.4.19.56.31a.944.944 0 0 0 .34.14l.05.01c.01.004.01.03.02.065 0 .058-.01.064-.07.1a.74.74 0 0 1-.23.08c-.01 0-.056.01-.227.06-.08.02-.1.06-.02.043.087-.02.524.107.57.16a.5.5 0 0 1 .007.17l-.01.15-.06.044a31.9 31.9 0 0 0-.312.26c-.14.118-.31.25-.374.3-.28.2-.875.428-1.12.428-.073 0-.09 0-.125-.04a.2.2 0 0 1-.05-.08 4.445 4.445 0 0 0-.128-.36 4.01 4.01 0 0 1-.19-.567 4.115 4.115 0 0 1-.035-1.08c.01-.11.095-.32.156-.375a.34.34 0 0 1 .25-.08.36.36 0 0 1 .13.02h-.007zm2.47.65c.08.04.1.06.14.16a.47.47 0 0 1-.01.39c-.06.12-.15.17-.31.17-.19 0-.18 0-.23-.212a.943.943 0 0 1-.04-.204c0-.01 0-.02-.01-.02s-.016-.034-.016-.09c0-.09 0-.097.04-.115.19-.095.294-.11.406-.06zm.33.95c.03.02.12.07.18.11.15.11.26.16.36.17l.08.01v.09a28.585 28.585 0 0 0-.05.79 8.655 8.655 0 0 1-.13 1.22c-.03.2-.08.37-.11.38-.03.01-.21-.35-.46-.93-.32-.74-.5-1.075-.727-1.38a.59.59 0 0 1-.09-.15.622.622 0 0 1 .08-.112l.074-.09.066.01c.11.02.16.01.32-.06.18-.08.28-.09.387-.04zm1.39.26c.11.03.24.1.33.18.09.08.18.2.18.24 0 .03-.45.81-.72 1.24-.26.42-.6.91-.65.93-.03.01-.03-.01.02-.2.104-.42.192-1.04.25-1.77.01-.17.02-.36.02-.43 0-.12 0-.12.04-.14a.9.9 0 0 1 .51-.033zm-2.5.38c.32.46.52.85.93 1.83.08.21.15.39.15.4 0 .04-.04.03-.3-.06-.47-.16-.9-.34-1.41-.6-.36-.18-.71-.36-.71-.38 0-.01.01-.052.03-.11.08-.25.25-.49.5-.7.14-.12.66-.48.69-.48a.49.49 0 0 1 .1.117zm5.66 2.15a.9.9 0 0 1 .38.39c.09.2.19.54.34 1.14.06.25.07.3.07.51 0 .208 0 .25-.03.37-.08.33-.265.586-.52.705-.25.115-.88.165-1.207.09-.084-.016-.105-.026-.105-.05 0-.05.19-.11.55-.174.29-.05.42-.08.43-.095.01-.01-.02-.02-.18-.06-.094-.022-.57-.022-.847 0-.11.01-.313.023-.446.03l-.24.01-.01-.08-.058-.55c-.067-.66-.13-1.09-.22-1.386l-.02-.08.062-.058c.124-.103.41-.23.926-.41.29-.095.48-.172.596-.24.135-.08.18-.096.3-.09a.52.52 0 0 1 .205.052v.004zm-2.5.78c.05.04.2.42.26.71.07.33.14.96.12 1.27l-.01.16-.198.067a1.72 1.72 0 0 1-.285.077l-.095.01-.01-.06c0-.04-.02-.17-.03-.3a21.25 21.25 0 0 0-.11-.81 18.74 18.74 0 0 1-.15-1.08c0-.034.006-.035.117-.043a1.7 1.7 0 0 1 .38.01zm-3.03.01c.34.02.96.09.99.12a7 7 0 0 1 .06.52c.02.25.02.387.05 1.016.02.508.03.59.072 1.08.027.3.047.695.066 1.285.03.89.06 1.32.13 1.735l.035.23a6.162 6.162 0 0 1-1.78.24 7.85 7.85 0 0 1-1.61-.16c-.25-.05-.65-.15-.667-.168a24.694 24.694 0 0 1-.968-4.24c-.08-.574-.17-1.315-.156-1.33.02-.014.796-.14 1.148-.185a21.62 21.62 0 0 1 1.51-.13c.24-.013.9-.01 1.114 0zm2.03.1c.08.3.13.74.202 1.69.023.32.05.64.06.7.01.08.01.127 0 .13a9.3 9.3 0 0 1-.717.13c-.11.02-.17.027-.17.018l-.02-.31a25.535 25.535 0 0 1-.08-2.33 2.195 2.195 0 0 1 .59-.07c.12 0 .12 0 .135.046zm-.04 3.01c.022.01.03.03.04.1.003.057.045.27.09.488.11.54.14.73.15.99l.006.224-.17.054a2.69 2.69 0 0 1-.245.07 1.872 1.872 0 0 1-.34.03l-.03-.494a29.22 29.22 0 0 1-.04-.938l-.01-.443h.05c.027 0 .115-.017.194-.036a3 3 0 0 1 .19-.042c.024 0 .05-.01.06-.01a.09.09 0 0 1 .045.008v-.01zM11.92 2.86c-.128.02-.304.1-.474.212a2.135 2.135 0 0 0-.47.474c-.13.198-.213.46-.19.596.01.06.08.148.115.148.01 0 .05-.057.08-.125.13-.26.33-.513.5-.646.11-.08.27-.15.41-.19.09-.02.15-.03.32-.02.12 0 .23.01.25.02.03.01.04 0 .06-.05.04-.09.03-.15-.02-.23-.1-.16-.34-.25-.57-.21zm4.85 1.62c0 .204.048.405.183.738.04.103.072.2.07.22-.008.046-.144.08-.408.098-.233.016-.256.02-.367.048-.058.016-.065.02-.065.062a.34.34 0 0 0 .25.318c.234.07.64-.055.85-.257.132-.127.13-.118.024-.295a11.59 11.59 0 0 1-.442-.886.99.99 0 0 0-.084-.162.367.367 0 0 0-.01.116zm-3.838-.026c-.036.21.097.62.337 1.032a.61.61 0 0 1 .08.188c-.01.078-.24.144-.44.124-.06-.008-.2-.026-.31-.048-.27-.048-.31-.048-.33.005-.04.103-.05.142-.02.2.06.17.33.27.71.27.31 0 .43-.04.61-.203.07-.07.09-.1.11-.168a.355.355 0 0 0-.02-.262 2.122 2.122 0 0 0-.2-.223c-.19-.2-.23-.27-.38-.62a9.527 9.527 0 0 0-.13-.31l-.04-.07-.01.06zm1.943.273c-.023.01-.028.036-.028.124 0 .42.24.96.658 1.5.108.14.472.58.62.75.15.17.2.32.163.48-.024.1-.083.22-.117.24a9.296 9.296 0 0 0-.34.16c-.4.19-.53.24-.7.29-.2.06-.35.08-.51.07-.26-.014-.31-.064-.39-.38l-.04-.18c0-.003 0-.01-.01-.01-.03 0-.09.15-.11.25a.71.71 0 0 0 .16.54l.058.06.227.01c.61.017 1.18-.17 1.87-.6l.22-.14.03-.105c.013-.06.04-.15.063-.21a2 2 0 0 0 .054-.19c.03-.143.02-.166-.23-.414-.65-.64-1.364-1.63-1.45-2.02a.374.374 0 0 0-.07-.17c-.04-.05-.055-.053-.096-.03zM7.465 6.36a.5.5 0 0 0-.31.337c-.036.106-.034.112.032.053.09-.088.122-.104.208-.104.042 0 .083.005.088.016a.53.53 0 0 1-.032.138.987.987 0 0 0-.04.327c0 .236.02.388.09.532.09.18.09.18.1-.21.01-.31.01-.37.04-.45.06-.17.16-.24.28-.2.08.02.14.1.24.31.05.1.12.21.14.24l.05.06.01-.11c.05-.43-.2-.84-.57-.96a.412.412 0 0 0-.3 0zm9.22 2.082c-.572.303-.77.382-1.094.435-.07.01-.14.028-.14.04a2.48 2.48 0 0 0 0 .466c.01.055.01.057.07.057.1 0 .33-.055.47-.11.35-.14.69-.48.93-.93.03-.057.06-.1.05-.1l-.27.142zm-3.72.294c.103.192.376.4.688.52.374.15.96.24 1.42.225h.142l-.003-.2a2.933 2.933 0 0 0-.015-.27l-.013-.07-.516-.01c-.85-.01-1.287-.08-1.718-.26-.025-.01-.023 0 .016.07v.01zm-.32.45c-.078.023-.087.06-.037.127.025.033.08.094.122.134.042.04.14.16.213.267.075.104.177.24.228.3.27.31.56.417 1.15.417.48 0 .92-.08 1.07-.21a.764.764 0 0 0 .15-.22s-.24-.01-.54 0c-.9.01-1.27-.04-1.64-.22-.25-.12-.42-.29-.52-.5-.04-.09-.05-.1-.09-.1a.453.453 0 0 0-.09.02zm1.923 5.055a.172.172 0 0 0-.027.27c.12.11.3.03.3-.13 0-.04-.01-.07-.05-.11a.16.16 0 0 0-.21-.02zm.227.8a.177.177 0 0 0-.128.18c0 .05.01.07.052.11.04.05.06.05.12.05.05 0 .07 0 .11-.04.04-.04.05-.05.05-.12 0-.06-.01-.08-.05-.12a.183.183 0 0 0-.17-.05zm3.73 2.14c-.368.07-.67.22-.84.42l-.064.08h.08c.16 0 .32-.07.68-.28.22-.13.35-.2.44-.22.08-.02-.12-.01-.28.02zm-.31.63a.738.738 0 0 0-.283.11c-.038.03-.042.04-.022.06.033.03.53.01.877-.03l.315-.03c.05 0-.127-.05-.278-.08a2.564 2.564 0 0 0-.61-.02zm-.137.63c-.083.03-.192.07-.205.1-.014.02.212.04.824.05.512.01.565.01.522-.01a2.895 2.895 0 0 0-.51-.12 2.83 2.83 0 0 0-.64 0z"/></svg>