<svg xmlns="http://www.w3.org/2000/svg" xmlns:xlink="http://www.w3.org/1999/xlink" preserveAspectRatio="none" width="200" height="200" viewBox="0 0 200 200">
  <defs>
    <linearGradient id="a" gradientUnits="userSpaceOnUse" x1="125.42" y1="122.05" x2="244.97" y2="122.05">
      <stop offset="0%" stop-opacity=".2"/>
      <stop offset="100%" stop-opacity="0"/>
    </linearGradient>
    <path fill="#FFF" d="M170.7 170.7Q200 141.4 200 100q0-41.4-29.3-70.75Q141.4 0 100 0 58.6 0 29.25 29.25 0 58.6 0 100t29.25 70.7Q58.6 200 100 200t70.7-29.3z" id="b"/>
    <path fill="#E53935" d="M0 200h200V0H0v200z" id="d"/>
    <g id="e">
      <path fill="#F5F5F5" d="M129.65 127.15l-4.2-2.15q-2.85 1.85-5.8 3.25-8.5 3.95-18.5 4.3H100v2.15h.35q.42 0 .8.05 3.15.3 5.5 2.65.15.2.35.35l22.2-10.45q.25-.1.45-.15m-22.7 23.15q-.2.1-.3.25-2.35 2.3-5.5 2.6-.25 0-.5.1H100v46.25l19-43.5-12.05-5.7z"/>
      <path fill="#C62828" d="M138.85 131.8q-1.3-2.95-3.45-4.1-2.35-1.35-5.75-.55-.2.05-.45.15L107 137.75q-.2-.15-.35-.35-2.35-2.35-5.5-2.65-.38-.05-.8-.05.17 0 .3.05v18.5q.25-.1.5-.1 3.15-.3 5.5-2.6.1-.15.3-.25L119 156l10.2 4.8q8.05 1.95 10-5.4v-22.7q-.2-.45-.35-.9z"/>
      <path fill="#FFDAA4" d="M121 24.05q-9.05-4.6-19.85-4.95-.6-.05-1.15-.05v113.5h1.15q10-.35 18.5-4.3 2.95-1.4 5.8-3.25 4.1-2.7 7.8-6.35 13.1-13.05 13.95-31.05V63.9q0-.4-.05-.75-.05-1.15-.2-2.25-10.3-1.1-17.9-8.65Q120.2 43.5 120.2 31q0-3.65.8-6.95m-6.05 46.1q0-3.75 1.5-6.45 1.65-2.6 3.85-2.6 2.25 0 3.8 2.6 1.6 2.7 1.6 6.45t-1.6 6.4q-1.55 2.7-3.8 2.7-2.2 0-3.85-2.7-1.5-2.65-1.5-6.4M103 111.75v-8.25l25.95-10.9q-2.15 5.95-7.05 10.7-7.7 7.65-18.15 8.45H103z"/>
      <path fill="#212121" d="M103 103.5v8.25h.75q10.45-.8 18.15-8.45 4.9-4.75 7.05-10.7L103 103.5m13.45-39.8q-1.5 2.7-1.5 6.45t1.5 6.4q1.65 2.7 3.85 2.7 2.25 0 3.8-2.7 1.6-2.65 1.6-6.4 0-3.75-1.6-6.45-1.55-2.6-3.8-2.6-2.2 0-3.85 2.6m-19.4 48.05v-8.25l-26-10.9q2.2 5.95 7.05 10.7 7.75 7.65 18.2 8.45h.75m-13.5-35.2q1.55-2.65 1.55-6.4 0-3.75-1.55-6.45-1.6-2.6-3.8-2.6-2.25 0-3.8 2.6-1.6 2.7-1.6 6.45t1.6 6.4q1.55 2.7 3.8 2.7 2.2 0 3.8-2.7z"/>
      <path fill="#263238" d="M135.95 35.9q-1-1.17-2.1-2.3l-.6-.6q-5.7-5.65-12.25-8.95-.8 3.3-.8 6.95 0 12.5 8.85 21.25 7.6 7.55 17.9 8.65-1.54-14.13-11-25m41.9 125.05l-.05-.15q-3.9-10.92-11.05-14.8l-27.9-14.2q.15.45.35.9v22.7q-1.95 7.35-10 5.4L119 156l-19 43.5v8.8l91.3-.1-13.45-47.25z"/>
      <path fill="url(#a)" d="M177.8 160.8l.05.15 13.45 47.25H245v-54.05L135.95 35.9q9.46 10.87 11 25 .15 1.1.2 2.25.05.35.05.75v23.7q-.85 18-13.95 31.05-3.7 3.65-7.8 6.35l4.2 2.15q3.4-.8 5.75.55 2.15 1.15 3.45 4.1l27.9 14.2q7.16 3.88 11.05 14.8z"/>
      <path fill="#37474F" d="M60.85 132.7q.2-.45.3-.9L33.25 146q-7.17 3.88-11.05 15 .02.06 0 .1L8.75 208.4l91.25-.1v-8.8L81.05 156l-10.25 4.8q-8 1.95-9.95-5.4v-22.7z"/>
      <path fill="#FAFAFA" d="M74.6 125l-4.2 2.15.4.15 22.25 10.45.35-.35q2.35-2.35 5.5-2.65.5-.05 1.05-.05h.05v-2.15h-1.1q-10-.35-18.5-4.3-2.95-1.4-5.8-3.25m25.3 28.25h-.5q-.25-.1-.5-.1-3.15-.3-5.5-2.6-.15-.15-.3-.25L81.05 156 100 199.5v-46.25h-.1z"/>
      <path fill="#FFE0B2" d="M100 19.05q-.55 0-1.1.05-10.8.35-19.85 4.95.8 3.3.8 6.95 0 12.5-8.85 21.25-7.6 7.55-17.95 8.65-.1 1.1-.15 2.25-.1.35-.1.75v23.7q.9 18 14 31.05 3.7 3.65 7.8 6.35 2.85 1.85 5.8 3.25 8.5 3.95 18.5 4.3h1.1V19.05m-14.9 51.1q0 3.75-1.55 6.4-1.6 2.7-3.8 2.7-2.25 0-3.8-2.7-1.6-2.65-1.6-6.4 0-3.75 1.6-6.45 1.55-2.6 3.8-2.6 2.2 0 3.8 2.6 1.55 2.7 1.55 6.45m11.95 33.35v8.25h-.75q-10.45-.8-18.2-8.45-4.85-4.75-7.05-10.7l26 10.9z"/>
      <path fill="#D32F2F" d="M70.8 127.3l-.4-.15q-3.4-.8-5.75.55-2.2 1.15-3.5 4.1-.1.45-.3.9v22.7q1.95 7.35 9.95 5.4l10.25-4.8 12.05-5.7q.15.1.3.25 2.35 2.3 5.5 2.6.25 0 .5.1h1.25v-18.5q-.13-.04-.3-.05h-.4q-.55 0-1.05.05-3.15.3-5.5 2.65l-.35.35L70.8 127.3z"/>
      <path fill="#36474F" d="M79.05 24.05Q72.5 27.35 66.8 33 54.85 44.85 53.05 60.9 63.4 59.8 71 52.25 79.85 43.5 79.85 31q0-3.65-.8-6.95z"/>
    </g>
  </defs>
  <mask id="c">
    <use xlink:href="#b"/>
  </mask>
  <g mask="url(#c)">
    <use xlink:href="#d"/>
    <use xlink:href="#e"/>
  </g>
</svg>
