<svg width="18px" height="18px" viewBox="0 0 18 18" xmlns="http://www.w3.org/2000/svg" xmlns:xlink="http://www.w3.org/1999/xlink">
  <defs/>
  <g>
    <path stroke="none" fill="#000000" d="M15.4 2.65 Q18 5.35 18 9 18 12.75 15.4 15.4 12.75 18 9 18 5.25 18 2.65 15.4 0 12.75 0 9 0 5.25 2.65 2.65 5.25 0 9 0 12.75 0 15.4 2.65 M16.2 9 Q16.2 6.1 14.1 4 11.95 1.8 9 1.8 6 1.8 3.9 4 1.75 6.1 1.75 9 1.75 12 3.9 14.1 6 16.2 9 16.2 11.95 16.2 14.1 14.1 16.2 12 16.2 9 M5.25 12.75 L5.25 5.25 12.75 5.25 12.75 12.75 5.25 12.75"/>
  </g>
</svg>