<svg xmlns="http://www.w3.org/2000/svg" width="24" height="24"><path fill="#000000" d="M6 14a1 1 0 0 1 1 1 1 1 0 0 1-1 1 5 5 0 0 1-5-5 5 5 0 0 1 5-5c1-2.35 3.3-4 6-4 3.43 0 6.24 2.66 6.5 6.03L19 8a4 4 0 0 1 4 4 4 4 0 0 1-4 4h-1a1 1 0 0 1-1-1 1 1 0 0 1 1-1h1a2 2 0 0 0 2-2 2 2 0 0 0-2-2h-2V9a5 5 0 0 0-5-5C9.5 4 7.45 5.82 7.06 8.19A3.11 3.11 0 0 0 6 8a3 3 0 0 0-3 3 3 3 0 0 0 3 3m8.83 1.67c1.56 1.56 1.56 3.83 0 5.41-.78.78-1.83.92-2.83.92s-2.05-.14-2.83-.92c-1.56-1.58-1.56-3.85 0-5.41L12 11l2.83 4.67m-1.42 1.02L12 14.25l-1.41 2.44c-.79.81-.79 2.01 0 2.81.41.43.91.5 1.41.5.5 0 1-.07 1.41-.5.79-.8.79-2 0-2.81z"/></svg>