<svg xmlns="http://www.w3.org/2000/svg" width="24" height="24"><path fill="#000000" d="M12.74 5.47c2.36 1.03 3.61 3.56 3.18 5.99A6.002 6.002 0 0 1 18 16v.17a3 3 0 0 1 1-.17 3 3 0 0 1 3 3 3 3 0 0 1-3 3H6a4 4 0 0 1-4-4 4 4 0 0 1 4-4h.27C5 12.45 4.6 10.24 5.5 8.26a5.49 5.49 0 0 1 7.24-2.79m-.81 1.83c-1.77-.8-3.84.01-4.62 1.77a3.49 3.49 0 0 0 .1 3.06A5.988 5.988 0 0 1 12 10a6 6 0 0 1 2 .34 3.506 3.506 0 0 0-2.07-3.04m1.62-3.66c-.55-.24-1.1-.41-1.67-.52l2.49-1.3.9 2.89a7.67 7.67 0 0 0-1.72-1.07m-7.46.8c-.49.35-.92.75-1.29 1.19l.11-2.81 2.96.68c-.62.21-1.22.53-1.78.94M18 9.71A9.69 9.69 0 0 0 17.59 8l2.38 1.5-2.05 2.23c.11-.65.13-1.33.08-2.02M3.04 11.3c.07.6.2 1.17.39 1.7l-2.37-1.5L3.1 9.28c-.1.65-.13 1.33-.06 2.02M19 18h-3v-2a4 4 0 0 0-4-4 4 4 0 0 0-4 4H6a2 2 0 0 0-2 2 2 2 0 0 0 2 2h13a1 1 0 0 0 1-1 1 1 0 0 0-1-1z"/></svg>